<svg width="1610" height="728" viewBox="0 0 1610 728" fill="none" xmlns="http://www.w3.org/2000/svg">
<path d="M1377.36 718.557V485.24M1377.36 718.557L1519.84 718.557C1520.41 718.557 1520.95 718.315 1521.33 717.892L1604.49 625.153C1604.82 624.786 1605 624.311 1605 623.818V524.815C1605 524.268 1604.78 523.745 1604.38 523.367L1521.36 444.303C1520.96 443.926 1520.43 443.728 1519.88 443.754L1484.89 445.422M1377.36 718.557L1279.21 722.489M468.705 508.673H317.364C316.829 508.673 316.317 508.888 315.941 509.268L263.707 562.17M468.705 508.673V652.606M468.705 508.673L486.341 486.012C486.72 485.525 487.302 485.24 487.919 485.24H566.006L706.232 485.24M468.705 652.606V720.489C468.705 721.594 469.6 722.489 470.705 722.489L706.232 722.489M468.705 652.606H231.75C230.645 652.606 229.75 651.71 229.75 650.606V599.833C229.75 599.365 229.586 598.912 229.286 598.552L200.339 563.851C199.586 562.948 198.221 562.887 197.389 563.718L149.784 611.322C149.446 611.66 148.997 611.866 148.521 611.902L83.0721 616.858C82.3889 616.91 81.7268 616.608 81.3174 616.059L57.218 583.719C56.9607 583.374 56.8217 582.954 56.8217 582.524L56.8217 540.003C56.8217 539.513 57.0011 539.041 57.3259 538.675L105.841 484.011C106.558 483.204 106.504 481.972 105.72 481.23L69.9765 447.444C69.6052 447.093 69.1136 446.897 68.6026 446.897H7.73199C6.13562 446.897 5.18263 445.119 6.06665 443.79L229.156 108.339C229.527 107.782 230.152 107.447 230.822 107.447H456.128M706.232 722.489V485.24M706.232 722.489H831.516M706.232 485.24H833.794M969.32 722.489V485.24M969.32 722.489H1116.13M969.32 722.489L831.516 722.489M969.32 485.24H1116.13M969.32 485.24H833.794M1116.13 485.24V722.489M1116.13 485.24L1275.97 485.24M1116.13 722.489H1279.21M1377.36 485.24L1484.89 445.422M1377.36 485.24H1275.97M555.483 187.851V376.752C555.483 377.857 556.379 378.752 557.483 378.752H822.107M555.483 187.851L466.255 108.067C465.815 107.674 465.571 107.106 465.589 106.516L468.569 7.53365C468.621 5.79593 470.713 4.94781 471.96 6.15837L659.24 187.851M555.483 187.851H822.107M1360.85 188.966V188.966C1360.85 188.351 1360.35 187.854 1359.74 187.856L1089.36 188.966M1360.85 188.966L1356.66 376.797C1356.63 377.884 1355.74 378.752 1354.66 378.752H822.107M1360.85 188.966H1469.79C1470.85 188.966 1471.73 189.8 1471.79 190.863L1484.89 445.422M822.107 378.752V187.851M822.107 187.851L1089.36 188.966M1089.36 188.966V370.473M1275.97 485.24L1279.21 722.489M831.516 722.489L833.794 485.24" stroke="black" stroke-width="10"/>
</svg>
